# Blender 3.6.4
# www.blender.org
mtllib container0-100.mtl
o 圓柱體.007
v 5.804473 1.177500 1.218999
v 6.060489 1.295500 1.219002
v 6.060488 -1.295500 -1.219013
v 6.060489 -1.295500 1.219002
v 6.060488 1.295500 -1.219013
v 0.056160 -1.295500 1.219003
v 0.312176 -1.177500 1.219000
v 0.056159 -1.295500 -1.219012
v 0.312176 -1.177500 -1.219000
v 5.804473 -1.177500 1.218999
v 5.804472 1.177500 -1.219001
v 5.804472 -1.177500 -1.219001
v 6.060472 -1.177500 1.100999
v 6.060472 1.177500 1.100999
v 6.060472 -1.177500 -1.101001
v 6.060472 1.177500 -1.101001
v 0.056160 1.295500 1.219003
v 0.056159 1.295500 -1.219012
v 0.312176 1.177500 1.219000
v 0.312176 1.177500 -1.219000
v 0.056176 -1.177500 1.101000
v 0.056176 1.177500 1.101000
v 0.056175 -1.177500 -1.101000
v 0.056175 1.177500 -1.101000
vn -0.0000 0.0001 -1.0000
vn -0.0000 -0.0000 1.0000
vn 1.0000 -0.0000 0.0001
vn -0.0000 -0.0000 -1.0000
vn -0.0000 -1.0000 -0.0000
vn 1.0000 -0.0000 -0.0000
vn -1.0000 -0.0000 0.0001
vn -0.0000 -0.0001 -1.0000
vn -0.0000 1.0000 -0.0000
vn -1.0000 -0.0000 -0.0000
vt 0.000000 0.500000
vt 0.000000 -0.000000
vt 0.014281 0.021319
vt 0.014281 0.478681
vt 0.813585 0.313585
vt 0.313585 0.313585
vt 0.334904 0.299304
vt 0.792266 0.299304
vt 0.609064 0.500000
vt 0.609064 0.813585
vt 0.599237 0.799304
vt 0.599237 0.514281
vt 0.313585 0.000000
vt 0.334904 0.014281
vt 0.299304 0.478681
vt 0.313585 0.500000
vt 0.000000 1.000000
vt -0.000000 0.500000
vt 0.203021 0.500000
vt 0.203021 1.000000
vt 0.406043 0.500000
vt 0.415870 0.514281
vt 0.415870 0.799304
vt 0.406043 0.813585
vt 0.792266 0.014281
vt 0.813585 -0.000000
vt 0.618892 0.514281
vt 0.618892 0.799304
vt 0.299304 0.021319
vt 0.313585 -0.000000
vt 0.406043 1.000000
vt 0.203022 1.000000
vt 0.203022 0.500000
vt 0.406043 0.500000
vt 0.812086 0.500000
vt 0.812086 0.813585
vt 0.802259 0.799304
vt 0.802259 0.514281
s 0
usemtl Material
f 3/1/1 8/2/1 9/3/1 12/4/1
f 6/5/2 4/6/2 10/7/2 7/8/2
f 3/9/3 5/10/3 16/11/3 15/12/3
f 2/13/2 1/14/2 10/7/2 4/6/2
f 3/1/4 12/4/4 11/15/4 5/16/4
f 4/17/5 6/18/5 8/19/5 3/20/5
f 4/21/6 3/9/6 15/12/6 13/22/6 14/23/6 16/11/6 5/10/6 2/24/6
f 10/7/2 19/25/2 7/8/2
f 15/12/6 16/11/6 14/23/6
f 2/13/2 17/26/2 19/25/2 1/14/2
f 8/9/7 23/27/7 24/28/7 18/10/7
f 5/16/8 11/15/8 20/29/8 18/30/8
f 18/31/9 17/32/9 2/33/9 5/34/9
f 17/26/2 6/5/2 7/8/2 19/25/2
f 8/2/4 18/30/4 20/29/4 9/3/4
f 6/35/10 17/36/10 18/10/10 24/28/10 22/37/10 21/38/10 23/27/10 8/9/10
f 10/7/2 1/14/2 19/25/2
f 13/22/6 15/12/6 14/23/6
f 9/3/4 11/15/4 12/4/4
f 9/3/4 20/29/4 11/15/4
f 21/38/10 24/28/10 23/27/10
f 21/38/10 22/37/10 24/28/10
