# Blender 3.6.4
# www.blender.org
mtllib BOX1.mtl
o Cube.001
v -0.578875 -0.360458 1.000000
v -0.578875 0.360458 1.000000
v -0.578875 -0.360458 -1.000000
v -0.578875 0.360458 -1.000000
v 0.578875 -0.360458 1.000000
v 0.578875 0.360458 1.000000
v 0.578875 -0.360458 -1.000000
v 0.578875 0.360458 -1.000000
v -0.434157 0.360458 -1.000000
v -0.434157 -0.360458 1.000000
v -0.434157 0.360458 1.000000
v -0.434157 -0.360458 -1.000000
v 0.434157 0.360458 -1.000000
v 0.434157 -0.360458 1.000000
v 0.434157 -0.360458 -1.000000
v 0.434157 0.360458 1.000000
v -0.578875 0.360458 -0.500000
v 0.578875 -0.360458 -0.500000
v 0.578875 0.360458 -0.500000
v -0.434157 0.414526 0.750000
v 0.578875 0.414526 0.750000
v -0.434157 -0.360458 0.500000
v -0.434157 0.414526 0.500000
v 0.434157 -0.360458 0.500000
v -0.578875 -0.360458 -0.500000
v 0.434157 -0.360458 -0.500000
v 0.578875 0.414526 0.500000
v -0.434157 -0.360458 -0.500000
v 0.434157 0.414526 0.500000
v -0.578875 0.414526 0.500000
v -0.578875 0.360458 -0.750000
v 0.578875 -0.360458 -0.750000
v -0.578875 -0.360458 -0.750000
v 0.578875 0.360458 -0.750000
v -0.578875 0.414526 0.750000
v 0.434157 -0.360458 -0.750000
v -0.578875 0.414526 -0.750000
v -0.578875 0.414526 -0.500000
v -0.434157 -0.360458 -0.750000
v 0.434157 0.414526 -0.500000
v 0.434157 0.414526 -0.750000
v -0.578875 -0.360458 0.500000
v 0.578875 0.360458 0.500000
v -0.434157 0.414526 -0.500000
v -0.434157 0.414526 -0.750000
v -0.578875 0.360458 0.500000
v 0.578875 -0.360458 0.500000
v -0.578875 -0.360458 0.750000
v 0.578875 0.360458 0.750000
v -0.434157 -0.360458 0.750000
v 0.578875 0.414526 -0.500000
v 0.578875 0.414526 -0.750000
v 0.434157 -0.360458 0.750000
v -0.578875 0.360458 0.750000
v 0.578875 -0.360458 0.750000
v -0.578875 -0.360458 1.030000
v -0.578875 0.360458 1.030000
v 0.578875 0.360458 1.030000
v 0.578875 -0.360458 1.030000
v 0.434157 -0.360458 1.030000
v -0.434157 0.360458 1.030000
v -0.434157 -0.360458 1.030000
v 0.434157 0.360458 1.030000
v -0.578875 0.360458 -1.030000
v -0.578875 -0.360458 -1.030000
v -0.434157 -0.360458 -1.030000
v 0.434157 0.360458 -1.030000
v 0.578875 0.360458 -1.030000
v 0.578875 -0.360458 -1.030000
v -0.434157 0.360458 -1.030000
v 0.434157 -0.360458 -1.030000
v -0.607819 -0.360458 -0.750000
v -0.607819 -0.360458 -0.500000
v -0.607819 0.360458 -0.500000
v -0.607819 0.360458 -0.750000
v -0.607819 0.360458 0.750000
v -0.607819 0.360458 0.500000
v -0.607819 -0.360458 0.500000
v -0.607819 -0.360458 0.750000
v 0.607819 0.360458 -0.750000
v 0.607819 0.360458 -0.500000
v 0.607819 -0.360458 -0.500000
v 0.607819 -0.360458 -0.750000
v 0.607819 -0.360458 0.750000
v 0.607819 -0.360458 0.500000
v 0.607819 0.360458 0.500000
v 0.607819 0.360458 0.750000
v -0.578875 0.385690 -0.750000
v -0.578875 0.385690 -1.000000
v 0.434157 0.385690 -1.000000
v 0.578875 0.385690 -1.000000
v 0.578875 0.385690 0.750000
v 0.578875 0.385690 1.000000
v -0.434157 0.385690 1.000000
v -0.578875 0.385690 1.000000
v -0.434157 0.385690 -1.000000
v -0.434157 0.385690 0.750000
v 0.434157 0.385690 1.000000
v 0.434157 0.385690 0.750000
v -0.578875 0.385690 0.500000
v -0.578875 0.385690 -0.500000
v 0.578875 0.385690 -0.500000
v -0.434157 0.385690 -0.500000
v -0.434157 0.385690 0.500000
v 0.434157 0.385690 -0.500000
v 0.434157 0.385690 0.500000
v 0.578875 0.385690 -0.750000
v -0.434157 0.385690 -0.750000
v 0.434157 0.385690 -0.750000
v 0.578875 0.385690 0.500000
v -0.578875 0.385690 0.750000
v -0.434157 0.385690 1.030000
v -0.578875 0.385690 1.030000
v 0.578875 0.385690 1.030000
v 0.434157 0.385690 1.030000
v 0.434157 0.385690 -1.030000
v 0.578875 0.385690 -1.030000
v -0.578875 0.385690 -1.030000
v -0.434157 0.385690 -1.030000
v -0.607819 0.385690 -0.500000
v -0.607819 0.385690 -0.750000
v -0.607819 0.385690 0.750000
v -0.607819 0.385690 0.500000
v 0.607819 0.385690 -0.750000
v 0.607819 0.385690 -0.500000
v 0.607819 0.385690 0.500000
v 0.607819 0.385690 0.750000
v 0.434157 0.414526 0.750000
v -0.607819 0.414526 -0.500000
v -0.607819 0.414526 -0.750000
v -0.607819 0.414526 0.750000
v -0.607819 0.414526 0.500000
v 0.607819 0.414526 -0.750000
v 0.607819 0.414526 -0.500000
v 0.607819 0.414526 0.500000
v 0.607819 0.414526 0.750000
v 0.561509 0.360458 -1.000000
v 0.560618 -0.360458 -1.000000
v 0.561509 -0.360458 -0.750000
v 0.561509 0.360458 0.750000
v 0.561509 0.360458 1.000000
v 0.561509 -0.360458 1.000000
v 0.561509 -0.360458 0.500000
v 0.561509 -0.360458 -0.500000
v 0.561509 0.360458 -0.500000
v 0.561509 0.360458 -0.000000
v 0.561509 0.360458 -0.750000
v 0.561509 0.360458 0.500000
v 0.561509 -0.360458 0.750000
v -0.561509 -0.360458 0.750000
v -0.561509 -0.360458 1.000000
v -0.561509 0.360458 1.000000
v -0.561509 0.360458 -0.750000
v -0.561509 0.360458 -1.000000
v -0.556812 -0.360458 -1.000000
v -0.561509 -0.360458 -0.500000
v -0.561509 -0.360458 0.500000
v -0.561509 0.360458 0.500000
v -0.561509 0.360458 -0.500000
v -0.561509 -0.360458 -0.750000
v -0.561509 0.360458 0.750000
v -0.434157 -0.360458 -0.980000
v 0.434157 0.360458 -0.980000
v -0.434157 0.360458 -0.980000
v 0.434157 -0.360458 -0.978769
v -0.434157 -0.360458 0.980000
v -0.434157 0.360458 0.980000
v 0.434157 0.360458 0.980000
v 0.434157 -0.360458 0.980000
v -0.252047 0.360458 -0.980000
v 0.561509 -0.360458 0.750000
v 0.561509 -0.319839 0.500000
vn -0.0000 -1.0000 -0.0000
vn -0.0000 -0.0000 -1.0000
vn -0.0000 1.0000 -0.0000
vn 1.0000 -0.0000 -0.0000
vn -1.0000 -0.0000 -0.0000
vn -0.0000 -0.0000 1.0000
vn 1.0000 -0.0006 -0.0018
vn -1.0000 -0.0033 -0.0094
vn 0.0368 -0.9993 -0.0006
vn 0.0003 -1.0000 -0.0000
vn 0.0007 -0.0009 -1.0000
vt 0.458442 0.744363
vt 0.487843 0.744363
vt 0.487843 0.747891
vt 0.458442 0.747891
vt 0.047889 0.017821
vt 0.047889 0.253030
vt 0.044361 0.239778
vt 0.044361 0.017821
vt 0.102349 0.788131
vt 0.102349 0.758730
vt 0.131750 0.758730
vt 0.131750 0.788131
vt 0.454913 0.492689
vt 0.458442 0.492689
vt 0.458442 0.500921
vt 0.454913 0.500922
vt 0.053770 0.017821
vt 0.047889 0.009589
vt 0.053770 0.009589
vt 0.053770 0.735209
vt 0.083171 0.735209
vt 0.083171 0.743442
vt 0.053770 0.743442
vt 0.446681 0.533851
vt 0.446681 0.530323
vt 0.454913 0.530323
vt 0.454913 0.533851
vt 0.211472 0.533851
vt 0.211472 0.530323
vt 0.053770 0.288312
vt 0.083171 0.288312
vt 0.083171 0.464719
vt 0.053770 0.464719
vt 0.092940 0.788131
vt 0.102349 0.964538
vt 0.092940 0.964538
vt 0.764936 0.489161
vt 0.882540 0.489161
vt 0.882540 0.497393
vt 0.764936 0.497393
vt 0.089051 0.017821
vt 0.083171 0.017821
vt 0.083171 0.009589
vt 0.089051 0.009589
vt 0.131750 0.017821
vt 0.102349 0.017821
vt 0.102349 0.009589
vt 0.131750 0.009589
vt 0.096468 0.017821
vt 0.096468 0.009589
vt 0.882540 0.740835
vt 0.764936 0.740835
vt 0.764936 0.732603
vt 0.882540 0.732603
vt 0.102349 0.735209
vt 0.131750 0.735209
vt 0.131750 0.743441
vt 0.102349 0.743441
vt 0.137630 0.735209
vt 0.137630 0.743441
vt 0.723413 0.298644
vt 0.723413 0.269242
vt 0.731646 0.269242
vt 0.731646 0.298644
vt 0.137630 0.017821
vt 0.137630 0.009589
vt 0.726941 0.298644
vt 0.735174 0.298644
vt 0.735174 0.475051
vt 0.726941 0.475051
vt 0.446681 0.500922
vt 0.723413 0.504452
vt 0.723413 0.475051
vt 0.731646 0.475051
vt 0.731646 0.504452
vt 0.096468 0.735209
vt 0.096468 0.743441
vt 0.487843 0.492689
vt 0.487843 0.500921
vt 0.446681 0.736131
vt 0.446681 0.706730
vt 0.454913 0.706730
vt 0.454913 0.736131
vt 0.089051 0.253030
vt 0.092579 0.017821
vt 0.092579 0.253030
vt 0.102349 0.494120
vt 0.131750 0.494120
vt 0.131750 0.500000
vt 0.102349 0.500000
vt 0.089051 0.735209
vt 0.089051 0.743442
vt 0.723413 0.471522
vt 0.731646 0.471522
vt 0.211472 0.739659
vt 0.446681 0.739659
vt 0.446681 0.743187
vt 0.211472 0.743187
vt 0.047889 0.735209
vt 0.047889 0.743442
vt 0.446681 0.703201
vt 0.454913 0.703201
vt 0.764575 0.512684
vt 0.735174 0.512684
vt 0.735174 0.504452
vt 0.764575 0.504452
vt 0.723413 0.507980
vt 0.731646 0.507980
vt 0.454913 0.739659
vt 0.882540 0.224551
vt 0.764936 0.224551
vt 0.764936 0.048144
vt 0.882540 0.048144
vt 0.723413 0.265714
vt 0.731646 0.265714
vt 0.735174 0.261010
vt 0.764575 0.261010
vt 0.764575 0.269242
vt 0.735174 0.269242
vt 0.141158 0.253030
vt 0.137630 0.253030
vt 0.141158 0.017821
vt 0.131750 0.258911
vt 0.102349 0.258911
vt 0.102349 0.253030
vt 0.131750 0.253030
vt 0.211472 0.706730
vt 0.211472 0.736131
vt 0.211472 0.500922
vt 0.211472 0.703201
vt 0.458442 0.736131
vt 0.487843 0.736131
vt 0.211472 0.497394
vt 0.446681 0.497393
vt 0.488204 0.475050
vt 0.488204 0.504452
vt 0.488204 0.269242
vt 0.488204 0.298644
vt 0.488204 0.265714
vt 0.723413 0.302172
vt 0.488204 0.302172
vt 0.488204 0.507980
vt 0.735196 0.747712
vt 0.735173 0.751421
vt 0.735015 0.777113
vt 0.731487 0.777091
vt 0.731668 0.747691
vt 0.488204 0.471522
vt 0.083171 0.500000
vt 0.053770 0.500000
vt 0.096468 0.500000
vt 0.053770 0.494120
vt 0.083171 0.494120
vt 0.137630 0.500000
vt 0.089051 0.500000
vt 0.731646 0.302172
vt 0.047889 0.500000
vt 0.053770 0.253030
vt 0.083171 0.253030
vt 0.096468 0.253030
vt 0.458442 0.530323
vt 0.487843 0.706730
vt 0.458442 0.706730
vt 0.487843 0.530323
vt 0.882540 0.526795
vt 0.764936 0.526795
vt 0.092940 0.758730
vt 0.083171 0.752850
vt 0.053770 0.752850
vt 0.044361 0.788131
vt 0.044361 0.758730
vt 0.053770 0.758730
vt 0.053770 0.788131
vt 0.092579 0.758730
vt 0.092579 0.788131
vt 0.083171 0.788131
vt 0.083171 0.758730
vt 0.764575 0.475051
vt 0.764575 0.298644
vt 0.131750 0.752850
vt 0.102349 0.752850
vt 0.102349 0.993939
vt 0.131750 0.964538
vt 0.131750 0.993939
vt 0.053770 0.993939
vt 0.053770 0.964538
vt 0.083171 0.964538
vt 0.083171 0.993939
vt 0.131750 0.999819
vt 0.102349 0.999819
vt 0.083171 0.999819
vt 0.053770 0.999819
vt 0.141158 0.964538
vt 0.141158 0.993939
vt 0.047889 0.752850
vt 0.089051 0.752850
vt 0.096468 0.752850
vt 0.137630 0.752850
vt 0.102349 0.000181
vt 0.131750 0.000181
vt 0.053770 0.000181
vt 0.083171 0.000181
vt 0.137630 0.000181
vt 0.092579 0.964538
vt 0.092579 0.993939
vt 0.096468 0.000181
vt 0.044361 0.993939
vt 0.044361 0.964538
vt 0.092940 0.993939
vt 0.089051 0.000181
vt 0.141158 0.758730
vt 0.141158 0.788131
vt 0.882540 0.703201
vt 0.764936 0.703201
vt 0.047890 0.000181
vt 0.487843 0.253952
vt 0.487843 0.489161
vt 0.458442 0.489161
vt 0.458441 0.253952
vt 0.735174 0.516212
vt 0.764575 0.516212
vt 0.764575 0.751421
vt 0.882540 0.250424
vt 0.882540 0.485633
vt 0.823738 0.485633
vt 0.764936 0.485633
vt 0.764936 0.263676
vt 0.764936 0.250424
vt 0.211472 0.493865
vt 0.446681 0.493865
vt 0.488204 0.469026
vt 0.723413 0.469170
vt 0.053770 0.258911
vt 0.083171 0.258911
vt 0.092940 0.253030
vt 0.092940 0.017821
vt 0.723413 0.511508
vt 0.488204 0.511689
vt 0.764575 0.022273
vt 0.764575 0.257482
vt 0.735174 0.257482
vt 0.735158 0.022271
vt 0.764936 0.979572
vt 0.764936 0.744363
vt 0.882540 0.744363
vt 0.882540 0.979572
vt 0.458442 0.983100
vt 0.487843 0.983100
vt 0.044361 0.735209
vt 0.044361 0.500000
vt 0.488204 0.261232
vt 0.723413 0.262186
vt 0.092579 0.500000
vt 0.092579 0.735209
vt 0.141158 0.500000
vt 0.141158 0.735209
vt 0.092940 0.735209
vt 0.092940 0.500000
vt 0.487843 0.051672
vt 0.487843 0.228079
vt 0.460794 0.228079
vt 0.460793 0.051672
vt 0.724589 0.298644
vt 0.724589 0.335641
vt 0.724589 0.475051
vt 0.489380 0.475051
vt 0.489380 0.298644
vt 0.447857 0.530323
vt 0.447857 0.706730
vt 0.212648 0.706730
vt 0.212648 0.530323
vt 0.446681 0.536203
vt 0.211472 0.536203
vt 0.211472 0.700849
vt 0.446681 0.700849
vt 0.450209 0.706730
vt 0.450209 0.530323
vt 0.102349 0.288312
vt 0.131750 0.288312
vt 0.131750 0.464719
vt 0.102349 0.464719
vt 0.723413 0.304524
vt 0.488204 0.304524
vt 0.733930 0.953516
vt 0.733776 0.978435
vt 0.733749 0.982917
vt 0.730221 0.982895
vt 0.730402 0.953495
vt 0.736282 0.953531
vt 0.763330 0.953697
vt 0.763171 0.979570
vt 0.102349 0.262439
vt 0.131750 0.262439
vt 0.737512 0.777128
vt 0.764416 0.777294
vt 0.458441 0.228079
vt 0.458441 0.257480
vt 0.454913 0.257480
vt 0.454913 0.228079
vt 0.458441 0.022271
vt 0.458441 0.025799
vt 0.458441 0.051672
vt 0.454913 0.051672
vt 0.454913 0.022271
vt 0.487843 0.025799
vt 0.053770 0.490592
vt 0.083171 0.490592
vt 0.131750 0.490592
vt 0.764936 0.022271
vt 0.882540 0.022271
vt 0.053770 0.262439
vt 0.083171 0.262439
vt 0.044361 0.253030
s 1
g Cube.001_lambert2
usemtl lambert2
f 2/1/1 54/2/1 161/3/1 152/4/1
f 43/5/2 47/6/2 172/7/2 148/8/2
f 45/9/3 37/10/3 38/11/3 44/12/3
f 58/13/4 6/14/4 93/15/4 114/16/4
f 86/17/2 43/5/2 110/18/2 126/19/2
f 77/20/5 76/21/5 122/22/5 123/23/5
f 16/24/5 63/25/5 115/26/5 98/27/5
f 16/24/5 14/28/5 60/29/5 63/25/5
f 24/30/1 53/31/1 50/32/1 22/33/1
f 108/34/2 45/9/2 41/35/2 109/36/2
f 43/37/4 19/38/4 102/39/4 110/40/4
f 49/41/6 87/42/6 127/43/6 92/44/6
f 81/45/4 80/46/4 124/47/4 125/48/4
f 80/46/2 34/49/2 107/50/2 124/47/2
f 17/51/5 46/52/5 100/53/5 101/54/5
f 75/55/5 74/56/5 120/57/5 121/58/5
f 74/56/6 17/59/6 101/60/6 120/57/6
f 70/61/2 64/62/2 118/63/2 119/64/2
f 19/65/6 81/45/6 125/48/6 102/66/6
f 9/67/2 96/68/2 90/69/2 13/70/2
f 63/25/6 58/71/6 114/16/6 115/26/6
f 68/72/2 67/73/2 116/74/2 117/75/2
f 31/76/2 75/55/2 121/58/2 88/77/2
f 6/14/4 49/78/4 92/79/4 93/15/4
f 57/80/6 61/81/6 112/82/6 113/83/6
f 55/84/6 49/41/6 140/85/6 149/86/6
f 33/87/1 25/88/1 73/89/1 72/90/1
f 76/21/6 54/91/6 111/92/6 122/22/6
f 87/42/4 86/17/4 126/19/4 127/43/4
f 67/73/5 13/93/5 90/94/5 116/74/5
f 1/95/2 2/96/2 152/97/2 151/98/2
f 46/99/2 77/20/2 123/23/2 100/100/2
f 61/81/4 11/101/4 94/102/4 112/82/4
f 34/103/4 8/104/4 91/105/4 107/106/4
f 8/107/4 68/72/4 117/75/4 91/108/4
f 2/96/5 57/80/5 113/83/5 95/109/5
f 26/110/1 24/111/1 22/112/1 28/113/1
f 64/62/5 4/114/5 89/115/5 118/63/5
f 4/116/5 31/117/5 88/118/5 89/119/5
f 144/120/6 18/121/6 19/65/6 145/122/6
f 18/123/1 32/124/1 83/125/1 82/126/1
f 62/127/6 61/81/6 57/80/6 56/128/6
f 59/129/6 58/71/6 63/25/6 60/29/6
f 2/96/5 1/95/5 56/128/5 57/80/5
f 10/130/4 11/101/4 61/81/4 62/127/4
f 54/2/5 2/1/5 95/131/5 111/132/5
f 5/133/4 6/134/4 58/71/4 59/129/4
f 71/135/2 67/73/2 68/72/2 69/136/2
f 65/137/2 64/62/2 70/61/2 66/138/2
f 3/139/5 4/114/5 64/62/5 65/137/5
f 9/140/4 12/141/4 66/138/4 70/61/4
f 8/107/4 7/142/4 69/136/4 68/72/4
f 7/143/1 138/144/1 15/145/1 71/146/1 69/147/1
f 15/148/5 13/93/5 67/73/5 71/135/5
f 73/89/5 74/56/5 75/55/5 72/90/5
f 79/149/5 76/21/5 77/20/5 78/150/5
f 31/76/2 33/151/2 72/90/2 75/55/2
f 42/152/1 48/153/1 79/149/1 78/150/1
f 25/154/6 17/59/6 74/56/6 73/89/6
f 48/155/6 54/91/6 76/21/6 79/149/6
f 9/140/4 70/61/4 119/64/4 96/156/4
f 46/99/2 42/157/2 78/150/2 77/20/2
f 83/125/4 80/46/4 81/45/4 82/126/4
f 85/158/4 86/17/4 87/42/4 84/159/4
f 19/65/6 18/121/6 82/126/6 81/45/6
f 49/41/6 55/84/6 84/159/6 87/42/6
f 32/160/2 34/49/2 80/46/2 83/125/2
f 47/6/2 43/5/2 86/17/2 85/158/2
f 90/69/3 91/105/3 117/75/3 116/74/3
f 93/15/3 98/161/3 115/26/3 114/16/3
f 97/162/3 111/132/3 95/131/3 94/163/3
f 89/119/3 96/68/3 119/64/3 118/63/3
f 92/79/3 99/164/3 98/161/3 93/15/3
f 102/39/3 105/165/3 106/166/3 110/40/3
f 108/34/2 88/167/2 37/10/2 45/9/2
f 123/23/5 122/22/5 131/168/5 132/169/5
f 104/170/2 100/171/2 30/172/2 23/173/2
f 111/174/6 97/175/6 20/176/6 35/177/6
f 91/105/3 90/69/3 109/178/3 107/106/3
f 96/68/3 89/119/3 88/118/3 108/179/3
f 121/58/5 120/57/5 129/180/5 130/181/5
f 94/163/3 95/131/3 113/83/3 112/82/3
f 52/182/3 41/35/3 40/183/3 51/184/3
f 35/177/3 30/172/3 132/169/3 131/168/3
f 27/185/3 29/186/3 128/187/3 21/188/3
f 23/173/3 30/172/3 35/177/3 20/176/3
f 38/11/3 37/10/3 130/181/3 129/180/3
f 52/182/3 51/184/3 134/189/3 133/190/3
f 27/185/3 21/188/3 136/191/3 135/192/3
f 105/193/6 102/194/6 51/184/6 40/183/6
f 100/100/2 123/23/2 132/169/2 30/195/2
f 122/22/6 111/92/6 35/196/6 131/168/6
f 88/77/2 121/58/2 130/181/2 37/197/2
f 120/57/6 101/60/6 38/198/6 129/180/6
f 125/48/4 124/47/4 133/199/4 134/200/4
f 127/43/4 126/19/4 135/201/4 136/202/4
f 102/66/6 125/48/6 134/200/6 51/203/6
f 99/204/6 92/205/6 21/188/6 128/187/6
f 124/47/2 107/50/2 52/206/2 133/199/2
f 110/207/2 106/208/2 29/186/2 27/185/2
f 107/209/2 109/36/2 41/35/2 52/182/2
f 97/162/3 94/163/3 98/161/3 99/164/3
f 92/44/6 127/43/6 136/202/6 21/210/6
f 101/211/6 103/212/6 44/12/6 38/11/6
f 103/213/3 101/54/3 100/53/3 104/214/3
f 126/19/2 110/18/2 27/215/2 135/201/2
f 23/173/3 20/176/3 128/187/3 29/186/3
f 149/216/4 140/217/4 141/218/4 142/219/4
f 138/144/7 137/220/7 147/221/7 139/222/7
f 144/223/4 145/224/4 146/225/4 148/226/4 172/227/4 143/228/4
f 49/78/1 6/14/1 141/218/1 140/217/1
f 6/134/2 5/133/2 142/229/2 141/230/2
f 8/104/1 34/103/1 147/221/1 137/220/1
f 13/93/5 15/148/5 165/231/5 163/232/5
f 47/233/1 85/158/1 84/159/1 55/234/1
f 34/49/2 32/160/2 139/235/2 147/236/2
f 7/142/6 8/107/6 137/237/6 138/238/6
f 160/239/8 153/240/8 154/241/8 155/242/8
f 157/243/5 158/244/5 159/245/5 156/246/5
f 151/247/5 152/4/5 161/3/5 150/248/5
f 31/117/1 4/116/1 154/241/1 153/240/1
f 42/157/2 46/99/2 158/249/2 157/250/2
f 4/114/6 3/139/6 155/251/6 154/252/6
f 54/91/6 48/155/6 150/253/6 161/254/6
f 17/59/6 25/154/6 156/255/6 159/256/6
f 33/151/2 31/76/2 153/257/2 160/258/2
f 46/52/1 17/51/1 159/245/1 158/244/1
f 50/259/1 53/260/1 169/261/1 166/262/1
f 164/263/9 170/264/10 163/265/11 165/266/11 162/267/11
f 168/268/6 167/269/6 166/270/6 169/271/6
f 14/28/5 16/24/5 168/272/5 169/273/5
f 11/101/4 10/130/4 166/274/4 167/275/4
f 11/276/1 167/269/1 168/268/1 16/277/1
f 94/163/6 11/276/6 16/277/6 98/161/6
f 44/12/6 103/212/6 105/193/6 40/183/6
f 36/278/1 26/279/1 28/280/1 39/281/1
f 12/141/4 9/140/4 164/282/4 162/283/4
f 12/284/1 155/285/1 3/286/1 65/287/1 66/288/1
f 155/285/1 12/284/1 162/289/1 39/290/1 160/291/1
f 40/183/3 41/35/3 45/9/3 44/12/3
f 96/68/3 108/179/3 109/178/3 90/69/3
f 36/278/1 139/292/1 144/293/1 26/279/1
f 165/294/1 15/145/1 138/144/1 139/222/1 36/295/1
f 14/296/1 142/219/1 5/297/1 59/298/1 60/299/1
f 149/216/1 142/219/1 14/296/1 169/261/1 53/260/1
f 1/300/1 151/301/1 10/302/1 62/303/1 56/304/1
f 20/176/6 97/175/6 99/204/6 128/187/6
f 50/259/1 166/262/1 10/302/1 151/301/1 150/305/1
f 42/152/1 157/306/1 22/33/1 50/32/1 150/307/1 48/153/1
f 144/293/1 139/292/1 32/124/1 18/123/1
f 33/87/1 39/281/1 28/280/1 156/308/1 25/88/1
f 157/309/1 156/310/1 28/113/1 22/112/1
f 24/30/1 143/311/1 171/312/1 53/31/1
f 29/186/2 106/208/2 104/170/2 23/173/2
f 103/213/3 104/214/3 106/166/3 105/165/3
f 26/110/1 144/223/1 143/228/1 24/111/1
f 172/7/2 47/6/2 143/313/2
f 55/234/1 171/312/1 143/311/1 47/233/1
f 39/290/1 162/289/1 165/294/1 36/295/1
f 19/38/1 43/37/1 148/226/1 146/225/1 145/224/1
f 13/70/1 163/265/1 170/264/10 164/263/9 9/67/1
